<?xml version="1.0" encoding="iso-8859-1"?>
<!-- Generator: Adobe Illustrator 19.0.0, SVG Export Plug-In . SVG Version: 6.00 Build 0)  -->
<svg version="1.1" id="Layer_1" xmlns="http://www.w3.org/2000/svg" xmlns:xlink="http://www.w3.org/1999/xlink" x="0px" y="0px"
	 viewBox="0 0 333.848 333.848" style="enable-background:new 0 0 333.848 333.848;" xml:space="preserve">
<g id="XMLID_224_">
	<path id="XMLID_225_" d="M228.873,0c-28.048,0-54.413,10.923-74.246,30.755c-37.339,37.339-40.615,96.029-9.845,137.125
		l21.519-21.519v-0.001l21.213-21.213l27.105-27.105l3.647-3.647c5.857-5.858,15.355-5.858,21.213-0.001
		c5.857,5.857,5.858,15.356,0,21.214l-30.752,30.753l-21.213,21.213l0,0l-0.007,0.007l-0.002,0.002l-21.511,21.511l-21.213-21.213
		l-21.975,21.974l-10.606-10.607c-0.009-0.009-0.019-0.016-0.026-0.024l-28.259-28.259c-5.858-5.859-15.357-5.858-21.214,0
		c-5.857,5.857-5.857,15.354,0,21.213l17.678,17.678l-67.174,67.174c-8.5,8.5-13.182,19.8-13.182,31.82
		c0.001,12.021,4.683,23.32,13.182,31.818c8.499,8.5,19.8,13.182,31.818,13.181c12.021,0.001,23.32-4.681,31.822-13.18
		l67.172-67.175l17.678,17.677c2.93,2.93,6.769,4.393,10.607,4.395c3.839,0,7.678-1.465,10.605-4.395
		c5.857-5.857,5.859-15.353,0-21.213l-28.27-28.269c-0.004-0.005-0.008-0.01-0.013-0.015l-10.606-10.607l21.965-21.963
		c18.053,13.56,39.906,20.897,62.888,20.897c28.046,0.001,54.415-10.922,74.245-30.754c40.941-40.94,40.94-107.553,0-148.493
		C283.288,10.922,256.919,0,228.873,0z"/>
</g>
<g>
</g>
<g>
</g>
<g>
</g>
<g>
</g>
<g>
</g>
<g>
</g>
<g>
</g>
<g>
</g>
<g>
</g>
<g>
</g>
<g>
</g>
<g>
</g>
<g>
</g>
<g>
</g>
<g>
</g>
</svg>
